<svg width="13" height="13" viewBox="0 0 13 13" fill="none" xmlns="http://www.w3.org/2000/svg">
<path d="M12.8095 11.8898C12.8699 11.9502 12.9178 12.0219 12.9505 12.1008C12.9831 12.1797 13 12.2642 13 12.3496C13 12.435 12.9831 12.5196 12.9505 12.5985C12.9178 12.6774 12.8699 12.7491 12.8095 12.8095C12.7491 12.8699 12.6774 12.9178 12.5985 12.9505C12.5196 12.9831 12.435 13 12.3496 13C12.2642 13 12.1797 12.9831 12.1008 12.9505C12.0219 12.9178 11.9502 12.8699 11.8898 12.8095L6.49998 7.41886L1.11017 12.8095C0.988212 12.9314 0.8228 13 0.650323 13C0.477847 13 0.312435 12.9314 0.190475 12.8095C0.068516 12.6875 3.39992e-09 12.5221 0 12.3496C-3.39992e-09 12.1772 0.068516 12.0117 0.190475 11.8898L5.5811 6.49998L0.190475 1.11017C0.068516 0.988212 0 0.8228 0 0.650323C0 0.477847 0.068516 0.312435 0.190475 0.190475C0.312435 0.068516 0.477847 0 0.650323 0C0.8228 0 0.988212 0.068516 1.11017 0.190475L6.49998 5.5811L11.8898 0.190475C12.0117 0.068516 12.1772 -3.39992e-09 12.3496 0C12.5221 3.39992e-09 12.6875 0.068516 12.8095 0.190475C12.9314 0.312435 13 0.477847 13 0.650323C13 0.8228 12.9314 0.988212 12.8095 1.11017L7.41886 6.49998L12.8095 11.8898Z" fill="#1CF6C2"/>
</svg>
